<svg width="870" height="492" viewBox="0 0 870 492" fill="none" xmlns="http://www.w3.org/2000/svg">
<path d="M574.867 270.046L830.063 20.4677L829.119 468.892L574.867 270.046Z" fill="#3E2342"/>
<path d="M293.72 273.543L38.5239 23.9653L39.4681 472.389L293.72 273.543Z" fill="#3E2342"/>
<path d="M418.813 53.1761C426.668 44.9623 439.78 44.9365 447.668 53.1194L837.188 457.245C849.43 469.947 840.429 491.125 822.788 491.125H46.7994C29.1959 491.125 20.1784 470.024 32.345 457.302L418.813 53.1761Z" fill="#2D1E2F"/>
<path d="M420.104 394.125C427.802 401.361 439.801 401.361 447.5 394.125L830.02 34.5729C843.222 22.164 834.44 -6.85453e-06 816.322 -6.85453e-06H51.2811C33.163 -6.85453e-06 24.3816 22.164 37.5832 34.5729L420.104 394.125Z" fill="#4E2A4F"/>
</svg>
